<svg width="187" height="36" viewBox="0 0 187 36" fill="none" xmlns="http://www.w3.org/2000/svg">
<path d="M59.5864 9.0923C62.2594 9.0923 64.3977 9.98265 66.1797 11.8227L66.2984 11.9414L68.6744 9.6265L68.6149 9.5078C66.4767 7.13355 63.2097 5.8277 59.4677 5.8277C52.1024 5.8277 46.6972 10.9324 46.6972 17.9958C46.6972 25.0592 52.0429 30.1637 59.4082 30.1637C63.1504 30.1637 66.4172 28.858 68.6149 26.4242L68.6744 26.3055L66.2984 23.9907L66.1797 24.1094C64.3977 25.9495 62.1999 26.8993 59.5864 26.8993C54.2407 26.8993 50.3799 23.1597 50.3799 17.9958C50.3799 12.8318 54.3002 9.0923 59.5864 9.0923ZM78.8314 27.0772C75.3269 27.0772 72.8917 24.5249 72.8917 20.9636C72.8917 17.3428 75.3269 14.8498 78.8314 14.8498C82.3359 14.8498 84.7712 17.3428 84.7712 20.9636C84.7712 24.5843 82.3359 27.0772 78.8314 27.0772ZM78.8314 11.7633C73.3074 11.7633 69.3277 15.6215 69.3277 20.9636C69.3277 26.3055 73.3074 30.1637 78.8314 30.1637C84.3554 30.1637 88.3349 26.3055 88.3349 20.9636C88.3349 15.6215 84.2959 11.7633 78.8314 11.7633ZM99.0267 27.0772C95.5222 27.0772 93.0274 24.5249 93.0274 20.9042C93.0274 17.2835 95.4627 14.7311 99.0267 14.7311C102.531 14.7311 104.966 17.2835 104.966 20.9042C104.966 24.5249 102.531 27.0772 99.0267 27.0772ZM104.966 14.2563C103.481 12.535 101.343 11.6446 98.7892 11.6446C93.3244 11.6446 89.5229 15.4434 89.5229 20.9042C89.5229 26.365 93.3244 30.1637 98.7892 30.1637C101.403 30.1637 103.66 29.1548 105.085 27.374V29.9263H108.471V4.64057H104.907L104.966 14.2563ZM119.875 14.7311C122.786 14.7311 124.983 16.6899 125.399 19.539H114.411C114.767 16.6899 116.905 14.7311 119.875 14.7311ZM119.875 11.7633C114.648 11.7633 110.906 15.6215 110.906 20.9636C110.906 26.365 114.826 30.1637 120.529 30.1637C123.499 30.1637 125.934 29.1548 127.597 27.2553L127.656 27.196L125.696 24.9404L125.577 25.0592C124.33 26.4242 122.667 27.1365 120.588 27.1365C117.262 27.1365 114.826 25.2373 114.351 22.21H128.607V22.0913C128.666 21.7945 128.666 21.3791 128.666 21.0823C128.726 15.5621 125.043 11.7633 119.875 11.7633ZM144.941 24.5843C143.872 26.187 142.209 27.0772 140.13 27.0772C136.507 27.0772 134.071 24.5843 134.071 20.9636C134.071 17.3428 136.566 14.8498 140.13 14.8498C142.209 14.8498 143.872 15.6809 144.941 17.3428L145.001 17.4615L147.733 15.7402L147.673 15.6215C146.248 13.1879 143.516 11.7633 140.189 11.7633C134.606 11.7633 130.507 15.6215 130.507 20.9636C130.507 26.3055 134.606 30.1637 140.189 30.1637C143.516 30.1637 146.248 28.7393 147.673 26.2463L147.733 26.1275L145.001 24.4656L144.941 24.5843ZM158.424 27.0772C154.92 27.0772 152.485 24.5249 152.485 20.9636C152.485 17.3428 154.92 14.8498 158.424 14.8498C161.929 14.8498 164.364 17.3428 164.364 20.9636C164.364 24.5843 161.929 27.0772 158.424 27.0772ZM158.424 11.7633C152.9 11.7633 148.921 15.6215 148.921 20.9636C148.921 26.3055 152.9 30.1637 158.424 30.1637C163.948 30.1637 167.928 26.3055 167.928 20.9636C167.928 15.6215 163.889 11.7633 158.424 11.7633ZM182.896 11.7633L176.838 25.6528L170.898 11.7633H167.275L175.056 29.5107L175.115 29.5702H178.56L186.341 11.7633H182.896ZM19.0325 0C8.61963 0 0.138184 8.3916 0.138184 18.6294V18.7133L3.32923 20.5595H3.41321C5.42861 19.2168 7.86388 18.7133 10.2991 19.1329C11.9786 19.4685 13.5742 20.2238 14.8338 21.3986L15.4216 21.9021L15.7575 21.2308C16.0934 20.5595 16.4293 19.972 16.7652 19.3846C16.9332 19.1329 17.1011 18.965 17.2691 18.7133L17.605 18.2937L17.1851 17.958C15.4216 16.5315 13.3222 15.5245 11.0549 15.1049C8.87156 14.6853 6.68823 14.7692 4.67283 15.4405C6.18438 8.8112 12.0626 4.1119 19.0325 4.1119C22.9794 4.1119 26.6742 5.62237 29.4454 8.3916C31.4609 10.3217 32.8044 12.7552 33.3922 15.4405C32.1327 15.021 30.7889 14.8532 29.4454 14.8532H29.1934C28.6897 14.8532 28.1857 14.937 27.5979 14.937H27.5139C27.3459 14.937 27.0942 15.021 26.9262 15.021C26.5902 15.1049 26.3384 15.1049 26.0024 15.1888L25.7504 15.2727C25.4987 15.3567 25.2467 15.4405 24.9948 15.5245H24.9108C24.323 15.6923 23.8191 15.9441 23.2313 16.1958C22.9794 16.2797 22.7274 16.4475 22.4755 16.6154H22.3915C21.1319 17.3706 19.9563 18.2937 19.0325 19.4685L18.9486 19.6364C18.6966 19.972 18.5287 20.2238 18.3607 20.3916C18.1928 20.5595 18.1088 20.8112 17.9409 21.0629L17.8569 21.2308C17.6889 21.4825 17.605 21.7343 17.521 21.9021V21.986C17.2691 22.4895 17.0171 23.0769 16.8492 23.6643V23.7482C16.4293 25.091 16.1774 26.5175 16.1774 28.028V28.1957C16.1774 28.3637 16.1774 28.6155 16.1774 28.7833C16.1774 28.8673 16.1774 28.951 16.1774 29.035C16.1774 29.119 16.1774 29.2868 16.1774 29.3708V29.4545V29.6225C16.1774 29.7902 16.2614 30.042 16.2614 30.2097C16.6812 32.2237 17.605 34.1538 19.0325 35.916L19.1165 36L19.2005 35.916C19.7883 35.2448 21.1319 33.1468 21.2999 31.888C20.6281 30.6292 20.2922 29.2028 20.2922 27.8603C20.2922 23.1609 23.9871 19.2168 28.7737 18.965H29.1094C31.0409 18.8811 32.9724 19.4685 34.5679 20.5595H34.6519L37.8429 18.7133V18.6294C37.8429 13.6783 35.9114 8.97902 32.3007 5.45455C28.7737 1.93007 24.071 0 19.0325 0Z" fill="white" fill-opacity="0.4"/>
</svg>
