<svg width="48" height="48" viewBox="0 0 48 48" fill="none" xmlns="http://www.w3.org/2000/svg">
<rect width="48" height="48" rx="24" fill="#00393D"/>
<g clip-path="url(#clip0_389_1203)">
<path d="M25.6605 32.4717C25.1485 32.4717 24.6472 32.3757 24.1565 32.1837C23.6659 31.9917 23.2499 31.7037 22.9085 31.3197L21.0525 29.4637C20.4125 28.8237 20.0925 28.0663 20.0925 27.1917C20.0925 26.317 20.4125 25.5597 21.0525 24.9197L23.2925 22.6797C23.4205 22.5943 23.5699 22.5517 23.7405 22.5517C23.9112 22.5517 24.0499 22.6157 24.1565 22.7437C24.2632 22.8717 24.3165 23.021 24.3165 23.1917C24.3165 23.3623 24.2739 23.5117 24.1885 23.6397L21.9485 25.8797C21.5645 26.221 21.3725 26.6583 21.3725 27.1917C21.3725 27.725 21.5645 28.1837 21.9485 28.5677L23.8045 30.4237C24.1032 30.765 24.4765 30.989 24.9245 31.0957C25.3725 31.2023 25.8099 31.213 26.2365 31.1277C26.6632 31.0423 27.0365 30.8503 27.3565 30.5517C27.6765 30.253 27.9219 29.8903 28.0925 29.4637L32.1885 18.0717C32.3592 17.6023 32.3912 17.1117 32.2845 16.5997C32.1779 16.0877 31.9432 15.6503 31.5805 15.2877C31.2179 14.925 30.7805 14.6903 30.2685 14.5837C29.7565 14.477 29.2659 14.509 28.7965 14.6797L17.4045 18.7757C16.9779 18.9463 16.6152 19.1917 16.3165 19.5117C16.0179 19.8317 15.8259 20.2157 15.7405 20.6637C15.6552 21.1117 15.6659 21.549 15.7725 21.9757C15.8792 22.4023 16.1032 22.765 16.4445 23.0637L18.3645 24.9837C18.5779 25.1543 18.6525 25.3677 18.5885 25.6237C18.5245 25.8797 18.3645 26.0397 18.1085 26.1037C17.8525 26.1677 17.6392 26.093 17.4685 25.8797L15.5485 23.9597C15.0792 23.4903 14.7485 22.9357 14.5565 22.2957C14.3645 21.6557 14.3432 21.0157 14.4925 20.3757C14.6419 19.7357 14.9405 19.1597 15.3885 18.6477C15.8365 18.1357 16.3592 17.773 16.9565 17.5597L28.3485 13.4637C29.0739 13.2503 29.7992 13.2183 30.5245 13.3677C31.2499 13.517 31.8792 13.8583 32.4125 14.3917C32.9459 14.925 33.2979 15.565 33.4685 16.3117C33.6392 17.0583 33.5965 17.773 33.3405 18.4557L29.2445 29.8477C29.0312 30.4877 28.6792 31.0317 28.1885 31.4797C27.6979 31.9277 27.1325 32.2157 26.4925 32.3437C26.1939 32.429 25.9165 32.4717 25.6605 32.4717Z" fill="white"/>
</g>
<defs>
<clipPath id="clip0_389_1203">
<rect width="19.2" height="19.2" fill="white" transform="matrix(1 0 0 -1 14.4004 32.4717)"/>
</clipPath>
</defs>
</svg>
