<svg width="637" height="373" viewBox="0 0 637 373" fill="none" xmlns="http://www.w3.org/2000/svg">
<path d="M64.0898 95.624H563.459" stroke="#DED8D5" stroke-width="1.9678" stroke-miterlimit="10"/>
<path d="M556.938 371.854H70.6108C67.0088 371.854 64.0898 368.934 64.0898 365.333V69.4102C64.0898 65.8082 67.0098 62.8892 70.6108 62.8892H556.938C560.54 62.8892 563.459 65.8092 563.459 69.4102V365.332C563.459 368.934 560.539 371.854 556.938 371.854Z" stroke="#DED8D5" stroke-width="1.9678" stroke-miterlimit="10"/>
<path d="M97.0002 79.59C97.0002 82.113 94.9553 84.158 92.4323 84.158C89.9093 84.158 87.8643 82.113 87.8643 79.59C87.8643 77.067 89.9093 75.022 92.4323 75.022C94.9553 75.023 97.0002 77.068 97.0002 79.59Z" fill="#FFB1A5"/>
<path d="M114.752 79.59C114.752 82.113 112.707 84.158 110.184 84.158C107.661 84.158 105.616 82.113 105.616 79.59C105.616 77.067 107.661 75.022 110.184 75.022C112.707 75.023 114.752 77.068 114.752 79.59Z" fill="#EAD254"/>
<path d="M132.505 79.59C132.505 82.113 130.46 84.158 127.937 84.158C125.414 84.158 123.369 82.113 123.369 79.59C123.369 77.067 125.414 75.022 127.937 75.022C130.46 75.022 132.505 77.068 132.505 79.59Z" fill="#00857B"/>
<path d="M105.192 34.378H3.793C1.698 34.378 0 32.68 0 30.585C0 28.49 1.698 26.792 3.793 26.792H105.191C107.286 26.792 108.984 28.49 108.984 30.585C108.985 32.68 107.287 34.378 105.192 34.378Z" fill="#C98BD2"/>
<path d="M632.463 282.062H583.248C581.153 282.062 579.455 280.364 579.455 278.269C579.455 276.174 581.153 274.476 583.248 274.476H632.463C634.558 274.476 636.256 276.174 636.256 278.269C636.256 280.364 634.557 282.062 632.463 282.062Z" fill="#56DFED"/>
<path d="M597.994 325.939H591.98C590.4 325.939 589.119 324.658 589.119 323.078V317.433C589.119 315.853 590.4 314.572 591.98 314.572H597.994C599.574 314.572 600.855 315.853 600.855 317.433V323.078C600.855 324.658 599.574 325.939 597.994 325.939Z" fill="#C98BD2"/>
<path d="M27.9473 352.217H21.9333C20.3533 352.217 19.0723 350.936 19.0723 349.356V343.711C19.0723 342.131 20.3533 340.85 21.9333 340.85H27.9473C29.5273 340.85 30.8083 342.131 30.8083 343.711V349.356C30.8083 350.936 29.5273 352.217 27.9473 352.217Z" fill="#FFB1A5"/>
<path d="M488.222 30.46H388.138C386.475 30.46 385.126 29.112 385.126 27.448V3.012C385.126 1.349 386.475 0 388.138 0H488.222C489.885 0 491.234 1.349 491.234 3.012V27.448C491.233 29.112 489.885 30.46 488.222 30.46Z" fill="#FFB1A5"/>
<path d="M399.579 10.854H470.757" stroke="white" stroke-width="1.1803" stroke-miterlimit="10"/>
<path d="M399.579 18.1592H428.57" stroke="white" stroke-width="1.1803" stroke-miterlimit="10"/>
<path d="M396.684 27.0142V38.8852L411.613 27.0142H396.684Z" fill="#FFB1A5"/>
<path d="M150.138 30.46H250.222C251.885 30.46 253.234 29.112 253.234 27.448V3.012C253.234 1.349 251.885 0 250.222 0H150.138C148.475 0 147.126 1.349 147.126 3.012V27.448C147.127 29.112 148.475 30.46 150.138 30.46Z" fill="#56DFED"/>
<path d="M238.781 10.854H167.603" stroke="white" stroke-width="1.1803" stroke-miterlimit="10"/>
<path d="M238.781 18.1592H209.79" stroke="white" stroke-width="1.1803" stroke-miterlimit="10"/>
<path d="M241.677 27.0142V38.8852L226.748 27.0142H241.677Z" fill="#56DFED"/>
<mask id="mask0_749_10449" style="mask-type:luminance" maskUnits="userSpaceOnUse" x="110" y="38" width="460" height="334">
<path d="M569.361 38.3618H110.088V371.046H569.361V38.3618Z" fill="white"/>
</mask>
<g mask="url(#mask0_749_10449)">
<path d="M453.075 259.528L416.573 254.667L416.858 258.292L385.65 262.448C385.65 262.448 365.533 312.917 383.263 423.913H408.65L417.787 311.364H421.032L429.882 423.913H455.269C472.997 312.917 453.075 259.528 453.075 259.528Z" fill="#8E716C"/>
<path d="M406.181 311.364H432.667" stroke="#282828" stroke-width="1.2333" stroke-miterlimit="10" stroke-linecap="round" stroke-linejoin="round"/>
<path d="M474.392 206.287C471.269 201.302 453.727 201.479 452.801 201.37C448.059 200.814 455.842 238.55 465.707 271.536C467.598 277.86 474.557 281.154 480.634 278.578C480.7 278.55 480.765 278.522 480.831 278.494C485.638 276.458 488.374 271.354 487.407 266.223C482.715 241.333 478.004 212.05 474.392 206.287Z" fill="#FFB1A5"/>
<path d="M478.573 219.932L456.177 228.623L454.077 217.997L477.268 212.211L478.573 219.932Z" fill="#F3978E"/>
<path d="M482.803 241.191C482.803 241.191 472.193 255.44 472.699 254.785C473.205 254.13 481.02 231.758 481.02 231.758L482.803 241.191Z" fill="#F3978E"/>
<path d="M497.974 222.038L467.562 261.442C463.569 266.615 464.844 274.096 470.326 277.654C475.798 281.206 483.137 279.339 486.246 273.603L511.56 226.899L497.974 222.038Z" fill="#FFB1A5"/>
<path d="M505.845 232.157C499.252 230.027 495.634 222.956 497.764 216.363C499.894 209.77 506.965 206.152 513.558 208.282C520.151 210.412 523.769 217.483 521.639 224.076C519.51 230.669 512.438 234.287 505.845 232.157Z" fill="#FFB1A5"/>
<path d="M518.85 212.679C518.85 212.679 522.283 209.114 516.193 206.616C510.103 204.118 502.573 204.691 497.766 216.363L518.85 212.679Z" fill="#FFB1A5"/>
<path d="M525.157 187.777L537.891 193.298C538.599 193.605 538.857 194.445 538.467 195.174L521.715 226.464C521.325 227.193 520.434 227.535 519.726 227.228L506.992 221.707C506.284 221.4 506.026 220.56 506.416 219.831L523.168 188.541C523.558 187.812 524.449 187.47 525.157 187.777Z" fill="#372F5F"/>
<path d="M523.941 187.223L536.675 192.744C537.383 193.051 537.641 193.891 537.251 194.62L520.499 225.91C520.109 226.639 519.218 226.981 518.51 226.674L505.776 221.153C505.068 220.846 504.81 220.006 505.2 219.277L521.952 187.987C522.342 187.258 523.233 186.916 523.941 187.223Z" fill="#261B43"/>
<path d="M522.505 190.407L533.694 195.258L520.042 220.759L508.853 215.908L522.505 190.407Z" fill="#E6E6E6"/>
<path d="M533.694 195.258L508.853 215.908L522.505 190.407L533.694 195.258Z" fill="white"/>
<path d="M512.535 205.577C512.535 205.577 515.37 206.13 517.929 207.58C519.056 208.218 519.634 209.52 519.321 210.777C519.036 211.923 518.075 212.777 516.903 212.924L510.283 213.759C510.283 213.759 506.829 219.712 502.316 220.381L506.456 209.929L512.535 205.577Z" fill="#FFB1A5"/>
<path d="M427.99 156.667C427.259 156.663 474.936 163.264 482.804 217.622L458.064 221.412L453.076 262.448H384.06L370.358 186.628C370.358 186.628 385.648 164.714 414.04 156.666L427.99 156.667Z" fill="#56DFED"/>
<path d="M458.064 221.412L460.211 197.678" stroke="#282828" stroke-width="1.2333" stroke-miterlimit="10" stroke-linecap="round" stroke-linejoin="round"/>
<path d="M432.521 157.444V138.563H410.395V157.666C409.263 158.004 407.378 158.686 404.451 160.077L421.708 170.357L439.35 160.077C439.35 160.077 436.55 158.448 432.521 157.444Z" fill="#FFB1A5"/>
<path d="M410.19 140.87C410.19 140.87 414.164 151.421 424.772 150.511C434.521 149.674 432.97 135.051 432.97 135.051L410.19 140.87Z" fill="#282828"/>
<path d="M400.54 126.837C397.072 129.983 389.317 118.051 392.668 114.701C396.019 111.351 398.575 116.607 398.575 116.607L400.071 120.168L401.2 124.992L401.468 126.255L400.54 126.837Z" fill="#F3978E"/>
<path d="M394.288 118.928C394.288 118.928 396.913 117.747 399.245 121.553" stroke="#282828" stroke-width="0.9928" stroke-miterlimit="10" stroke-linecap="round" stroke-linejoin="round"/>
<path d="M441.555 126.475C444.745 129.903 453.481 118.67 450.425 115.049C447.369 111.428 444.378 116.448 444.378 116.448L442.586 119.87L441.053 124.581L440.679 125.817L441.555 126.475Z" fill="#F3978E"/>
<path d="M448.454 119.123C448.454 119.123 445.938 117.724 443.293 121.319" stroke="#282828" stroke-width="0.9928" stroke-miterlimit="10" stroke-linecap="round" stroke-linejoin="round"/>
<path d="M394.457 103.32C394.457 119.114 406.499 126.604 421.353 126.604C436.207 126.604 448.249 119.115 448.249 103.32C448.249 87.5257 436.207 76.7808 421.353 76.7808C406.499 76.7808 394.457 87.5247 394.457 103.32Z" fill="#282828"/>
<path d="M398.114 104.418C398.114 114.114 399.484 122.481 400.851 128.419C402.19 134.233 405.958 138.296 411.282 141.566L412.252 142.162C417.885 145.622 425.164 145.703 430.884 142.368C436.653 139.005 440.692 134.571 441.935 128.332C444.196 116.984 444.443 104.417 444.443 104.417C444.443 104.417 446.594 79.9395 421.609 80.4155C396.624 80.8925 398.114 104.418 398.114 104.418Z" fill="#FFB1A5"/>
<path d="M419.762 118.387V121.774C419.762 121.975 419.801 122.167 419.871 122.343C420.149 123.035 420.948 123.367 421.67 123.175L423.223 122.763" stroke="#282828" stroke-width="1.2316" stroke-miterlimit="10" stroke-linecap="round" stroke-linejoin="round"/>
<path d="M415.789 105.252L403.372 108.162C403.372 108.162 403.936 105.002 409.016 103.854C414.096 102.706 415.789 105.252 415.789 105.252Z" fill="#282828"/>
<path d="M426.81 105.252L438.8 108.162C438.8 108.162 438.255 105.002 433.35 103.854C428.445 102.706 426.81 105.252 426.81 105.252Z" fill="#282828"/>
<path d="M411.072 116.462C412.228 116.462 413.166 115.527 413.166 114.374C413.166 113.22 412.228 112.286 411.072 112.286C409.915 112.286 408.978 113.22 408.978 114.374C408.978 115.527 409.915 116.462 411.072 116.462Z" fill="#282828"/>
<path d="M433.018 114.374C433.018 115.527 432.08 116.462 430.924 116.462C429.767 116.462 428.83 115.527 428.83 114.374C428.83 113.221 429.768 112.286 430.924 112.286C432.081 112.285 433.018 113.22 433.018 114.374Z" fill="#282828"/>
<path d="M413.166 127.118H429.314C429.314 127.118 422.157 135.824 413.166 127.118Z" fill="white"/>
<path d="M416.483 121.483C419.961 118.006 419.961 112.367 416.483 108.89C413.005 105.412 407.367 105.412 403.889 108.89C400.412 112.367 400.412 118.006 403.889 121.483C407.367 124.961 413.005 124.961 416.483 121.483Z" stroke="#C98BD2" stroke-width="1.3423" stroke-miterlimit="10"/>
<path d="M438.359 121.483C441.837 118.006 441.837 112.367 438.359 108.89C434.881 105.412 429.243 105.412 425.765 108.89C422.288 112.367 422.288 118.006 425.765 121.483C429.243 124.961 434.881 124.961 438.359 121.483Z" stroke="#C98BD2" stroke-width="1.3423" stroke-miterlimit="10"/>
<path d="M419.096 115.185C419.096 115.185 421.205 113.217 423.162 115.185" stroke="#C98BD2" stroke-width="1.3423" stroke-miterlimit="10"/>
<path d="M401.285 115.185L398.48 115.114" stroke="#C98BD2" stroke-width="1.3423" stroke-miterlimit="10"/>
<path d="M440.972 115.185L443.793 115.114" stroke="#C98BD2" stroke-width="1.3423" stroke-miterlimit="10"/>
<path d="M444.121 112.533C444.121 112.533 434.132 99.0287 436.436 85.3477C436.436 85.3477 443.85 89.0787 445.781 98.7097C447.712 108.34 444.121 112.533 444.121 112.533Z" fill="#282828"/>
<path d="M398.097 113.448C398.097 113.448 409.701 98.1097 407.397 84.4287C407.397 84.4287 399.349 89.0787 397.418 98.7087C395.487 108.34 398.097 113.448 398.097 113.448Z" fill="#282828"/>
<path d="M443.282 90.7357C443.282 90.7357 430.455 104.778 395.362 102.374C395.362 102.374 400.736 81.7677 417.743 79.5737C417.743 79.5737 437.38 77.2287 443.282 90.7357Z" fill="#282828"/>
<path d="M458.945 77.0097C460.42 67.8741 454.21 59.2724 445.075 57.7973C435.939 56.3222 427.337 62.5323 425.862 71.6679C424.387 80.8036 430.597 89.4053 439.733 90.8804C448.869 92.3555 457.47 86.1454 458.945 77.0097Z" fill="#282828"/>
<path d="M237.838 259.49L206.63 255.334L206.915 251.709L170.413 256.57C170.413 256.57 150.491 309.959 168.221 420.955H193.608L202.458 308.406H205.703L214.84 420.955H240.227C257.954 309.959 237.838 259.49 237.838 259.49Z" fill="#282828"/>
<path d="M235.348 107.646C231.124 102.677 227.742 96.8797 224.868 88.7447C221.782 80.0127 211.679 83.5617 211.679 83.5617C211.679 83.5617 203.26 72.7307 190.591 76.5027C177.922 80.2747 173.52 89.2907 173.262 100.009C173.004 110.727 164.573 112.404 158.081 124.803C146.62 146.693 165.916 165.13 201.04 160.016L201.087 159.675C204.545 160.725 208.785 161.184 213.96 160.877C256.156 158.372 252.084 127.335 235.348 107.646Z" fill="#282828"/>
<path d="M221.534 123.879C225.002 127.025 232.757 115.093 229.406 111.743C226.055 108.393 223.499 113.649 223.499 113.649L222.003 117.211L220.874 122.035L220.606 123.298L221.534 123.879Z" fill="#F3978E"/>
<path d="M227.786 115.969C227.786 115.969 225.161 114.788 222.829 118.594" stroke="#282828" stroke-width="0.9928" stroke-miterlimit="10" stroke-linecap="round" stroke-linejoin="round"/>
<path d="M180.521 123.517C177.331 126.945 168.595 115.712 171.651 112.091C174.707 108.47 177.698 113.49 177.698 113.49L179.49 116.912L181.023 121.623L181.397 122.859L180.521 123.517Z" fill="#F3978E"/>
<path d="M173.621 116.165C173.621 116.165 176.137 114.766 178.782 118.361" stroke="#282828" stroke-width="0.9928" stroke-miterlimit="10" stroke-linecap="round" stroke-linejoin="round"/>
<path d="M227.616 100.361C227.616 116.155 215.574 123.645 200.72 123.645C185.866 123.645 173.824 116.156 173.824 100.361C173.824 84.5658 185.866 73.8218 200.72 73.8218C215.575 73.8218 227.616 84.5668 227.616 100.361Z" fill="#282828"/>
<path d="M211.679 135.605H189.553V164.256H211.679V135.605Z" fill="#FFB1A5"/>
<path d="M186.324 133.818C186.324 133.818 192.483 146.11 200.06 148.029C202.085 148.542 204.246 148.366 206.198 147.674C209.05 146.663 212.666 142.411 213.281 137.706L213.566 135.018C213.566 135.018 200.084 142.36 186.324 133.818Z" fill="#282828"/>
<path d="M223.961 101.46C223.961 111.156 222.591 119.523 221.224 125.461C219.885 131.275 216.117 135.338 210.793 138.608L209.823 139.204C204.19 142.664 196.911 142.745 191.191 139.41C185.422 136.047 181.383 131.613 180.14 125.374C177.879 114.027 177.632 101.459 177.632 101.459C177.632 101.459 175.481 76.9815 200.466 77.4575C225.451 77.9335 223.961 101.46 223.961 101.46Z" fill="#FFB1A5"/>
<path d="M199.052 116.754V118.766C199.052 118.966 199.091 119.158 199.161 119.334C199.439 120.024 200.238 120.355 200.96 120.164L202.513 119.753" stroke="#282828" stroke-width="1.2298" stroke-miterlimit="10" stroke-linecap="round" stroke-linejoin="round"/>
<path d="M204.258 103.486L217.551 106.632C217.551 106.632 216.947 103.216 211.509 101.975C206.07 100.733 204.258 103.486 204.258 103.486Z" fill="#282828"/>
<path d="M197.278 103.486L183.815 106.632C183.815 106.632 184.427 103.216 189.935 101.975C195.442 100.733 197.278 103.486 197.278 103.486Z" fill="#282828"/>
<path d="M192.456 111.736C192.456 112.886 191.518 113.818 190.362 113.818C189.205 113.818 188.268 112.886 188.268 111.736C188.268 110.586 189.206 109.654 190.362 109.654C191.519 109.654 192.456 110.587 192.456 111.736Z" fill="#282828"/>
<path d="M212.307 111.736C212.307 112.886 211.369 113.818 210.213 113.818C209.056 113.818 208.119 112.886 208.119 111.736C208.119 110.586 209.057 109.654 210.213 109.654C211.37 109.654 212.307 110.587 212.307 111.736Z" fill="#282828"/>
<path d="M191.072 123.645H209.451C209.451 123.645 208.154 128.695 199.82 128.695C193.473 128.695 191.072 123.645 191.072 123.645Z" fill="white"/>
<path d="M177.954 109.575C177.954 109.575 187.943 96.0706 185.639 82.3896C185.639 82.3896 178.225 86.1206 176.294 95.7516C174.363 105.381 177.954 109.575 177.954 109.575Z" fill="#282828"/>
<path d="M223.979 109.125C223.979 109.125 212.375 95.1517 214.679 81.4707C214.679 81.4707 222.727 86.1207 224.658 95.7507C226.589 105.381 223.979 109.125 223.979 109.125Z" fill="#282828"/>
<path d="M178.792 87.7777C178.792 87.7777 190.254 103.184 225.347 100.781C225.347 100.781 221.338 78.8107 204.331 76.6157C204.331 76.6157 184.694 74.2707 178.792 87.7777Z" fill="#282828"/>
<path d="M146.802 327.258C146.292 328.061 176.01 197.953 167.187 199.92C166.382 200.099 150.929 201.534 148.632 206.204C141.974 219.74 137.2 326.271 137.2 326.271L146.802 327.258Z" fill="#FFB1A5"/>
<path d="M137.2 326.272C137.2 326.272 132.41 348.497 150.518 350.927C151.711 351.087 152.864 350.383 153.257 349.245L153.309 349.094C153.742 347.838 153.113 346.492 151.9 345.95C148.948 344.63 144.368 341.295 146.641 333.72C146.641 333.72 149.258 333.399 150.703 338.281C151.075 339.537 152.484 340.168 153.654 339.579C154.453 339.177 154.902 338.318 154.79 337.431C154.356 334.011 152.635 325.779 146.035 323.57L137.2 326.272Z" fill="#FFB1A5"/>
<path d="M143.294 237.466C143.294 237.466 160.417 261.58 160.507 261.114C160.597 260.648 166.495 227.258 166.495 227.258L145.717 218.258L143.294 237.466Z" fill="#F3978E"/>
<path d="M190.871 159.539C191.602 159.535 148.553 160.306 140.685 214.663L165.425 218.453L170.413 259.489H239.429L253.131 183.669C253.131 183.669 243.39 167.242 214.998 159.194L190.871 159.539Z" fill="#00857B"/>
<path d="M169.829 166.11C169.829 166.11 175.913 174.186 200.84 174.186C225.535 174.186 231.85 165.687 231.85 165.687C231.85 165.687 217.292 157.553 200.399 154.922C200.399 154.922 185.315 157.608 169.829 166.11Z" fill="#FFB1A5"/>
<path d="M254.527 338.312L254.587 446.717H308.215L312.337 338.312H254.527Z" fill="#00B5BE"/>
<path d="M370.969 338.312L370.909 446.717H317.281L313.159 338.312H370.969Z" fill="#00B5BE"/>
<path d="M341.679 338.312H286.23V375.974H341.679V338.312Z" fill="#00B5BE"/>
<path d="M404.847 243.709C408.172 280.443 404.665 307.208 405.634 374.801L373.626 376.142L368.856 249.62L404.847 243.709Z" fill="#FFB1A5"/>
<path d="M372.806 272.374C372.806 272.374 392.628 270.559 406.179 261.62L405.822 253.753L372.795 258.251L372.806 272.374Z" fill="#F3978E"/>
<path d="M341.007 159.134C341.007 159.134 403.967 174.967 415.374 254.882C415.374 254.882 384.56 268.241 353.68 262.495L360.627 235.766L341.007 159.134Z" fill="#341B3F"/>
<path d="M152.946 192.363L199.824 247.724L185.479 288.122C185.479 288.122 149.849 238.585 133.839 200.296L152.946 192.363Z" fill="#FFB1A5"/>
<path d="M154.488 194.361C154.488 194.361 138.027 203.661 133.84 200.297C126.523 194.418 120.476 172.898 120.476 172.898C120.476 172.898 151.258 161.293 150.969 161.747C150.681 162.2 154.488 194.361 154.488 194.361Z" fill="#FFB1A5"/>
<path d="M154.487 194.361C154.196 192.704 160.591 174.826 162.783 168.122C163.312 166.505 162.197 164.732 160.442 164.396C159.299 164.177 157.49 164.318 156.634 165.957L148.913 179.153L154.487 194.361Z" fill="#FFB1A5"/>
<path d="M153.923 175.035L148.622 148.662C148.308 146.907 146.544 145.698 144.785 146.03C143.262 146.318 142.258 147.674 142.438 149.201L144.748 168.839L153.923 175.035Z" fill="#FFB1A5"/>
<path d="M143.382 165.307L136.183 146.474C135.588 144.825 133.732 143.911 132.093 144.46C130.672 144.936 129.875 146.368 130.211 147.838L135.553 169.599L143.382 165.307Z" fill="#FFB1A5"/>
<path d="M135.645 170.86L126.537 152.355C125.701 150.638 123.621 149.84 121.914 150.583C120.31 151.28 119.6 153.097 120.287 154.749L127.548 172.219L135.645 170.86Z" fill="#FFB1A5"/>
<path d="M120.476 172.898L113.329 161.562C112.737 160.228 113.283 158.733 114.578 158.141C115.817 157.575 117.348 158.02 118.149 159.18L127.547 172.218L120.476 172.898Z" fill="#FFB1A5"/>
<path d="M152.483 173.053C152.483 173.053 141.75 171.927 140.647 186.231" stroke="#282828" stroke-width="1.5317" stroke-miterlimit="10" stroke-linecap="round" stroke-linejoin="round"/>
<path d="M175.972 269.228C175.972 269.228 184.789 299.741 202.358 295.684C219.928 291.627 247.311 254.102 247.311 254.102L241.182 190.028L191.868 250.722L175.972 269.228Z" fill="#FFB1A5"/>
<path d="M207.164 231.868C207.164 231.868 223.813 256.981 238.015 265.836L247.311 254.102L211.45 226.361L207.164 231.868Z" fill="#F3978E"/>
<path d="M280.006 157.749C280.006 157.749 231.126 168.767 205.078 225.575C205.078 225.575 220.816 249.289 246.047 259.829L262.939 239.135L280.006 157.749Z" fill="#341B3F"/>
<path d="M280.006 157.573C260.912 167.367 248.908 180.356 248.908 180.356L252.675 346.416H373.002L372.612 181.213C372.612 181.213 357.444 166.371 341.006 159.135C327.045 152.988 293.58 150.611 280.006 157.573Z" fill="#341B3F"/>
<path d="M336.943 238.49C327.7 238.49 320.207 230.997 320.207 221.754V205.017H353.68V221.754C353.68 230.997 346.187 238.49 336.943 238.49Z" stroke="#282828" stroke-width="1.3968" stroke-miterlimit="10" stroke-linecap="round" stroke-linejoin="round"/>
<path d="M372.807 263.112L374.368 208.789" stroke="#282828" stroke-width="1.3968" stroke-miterlimit="10" stroke-linecap="round" stroke-linejoin="round"/>
<path d="M250.757 254.058L248.157 206.969" stroke="#282828" stroke-width="1.3968" stroke-miterlimit="10" stroke-linecap="round" stroke-linejoin="round"/>
<path d="M281.417 96.9196L276.401 72.1046C276.119 70.0836 275.335 66.9636 276.295 64.0336C277.884 59.1846 283.723 49.8716 293.702 54.1356L295.859 63.9606C295.859 63.9606 285.495 66.0526 281.338 79.6106L281.417 96.9196Z" fill="#282828"/>
<path d="M292.966 59.2588C292.784 62.5188 289.906 76.7858 279.789 81.9828C279.789 81.9828 270.927 62.9768 292.966 59.2588Z" fill="#282828"/>
<path d="M328.459 153.004V110.867H289.615V153.004L278.052 158.275C278.052 158.275 280.764 175.739 309.444 176.126C338.125 176.513 341.006 159.134 341.006 159.134L328.459 153.004Z" fill="#FFB1A5"/>
<path d="M293.701 54.1368C293.701 54.1368 300.83 35.3308 322.813 45.3288C336.118 51.3798 339.845 59.4938 341.431 65.2418C341.958 67.1518 342.168 70.1608 342.025 71.9468L336.707 96.9198L315.948 62.3678L295.859 63.9608L293.701 54.1368Z" fill="#282828"/>
<path d="M336.707 96.9197C336.707 96.9197 339.326 92.7547 344.727 94.8027C350.128 96.8517 347.685 109.969 339.583 111.641C339.583 111.641 336.679 112.274 334.401 110.286C334.401 110.286 336.393 100.597 336.707 96.9197Z" fill="#F3978E"/>
<path d="M343.656 99.4306C343.656 99.4306 339.131 97.9206 335.92 104.584" stroke="#282828" stroke-width="1.3968" stroke-miterlimit="10" stroke-linecap="round" stroke-linejoin="round"/>
<path d="M281.416 96.9197C281.416 96.9197 278.797 92.7547 273.396 94.8027C267.995 96.8517 270.438 109.969 278.54 111.641C278.54 111.641 281.444 112.274 283.722 110.286C283.722 110.286 281.729 100.597 281.416 96.9197Z" fill="#F3978E"/>
<path d="M274.467 99.4306C274.467 99.4306 278.992 97.9206 282.203 104.584" stroke="#282828" stroke-width="1.3968" stroke-miterlimit="10" stroke-linecap="round" stroke-linejoin="round"/>
<path d="M337.248 84.4716C337.251 92.3796 336.474 108.924 331.613 118.744C327.048 127.964 319.499 132.926 309.602 133.221C299.704 133.517 292.331 129.702 286.422 117.736C280.513 105.77 280.795 84.6186 280.795 84.6186C280.795 84.6186 280.795 56.3696 308.715 56.3696C338.121 56.3696 337.248 84.4716 337.248 84.4716Z" fill="#FFB1A5"/>
<path d="M289.907 123.634C289.907 123.634 293.16 140.139 307.525 142.036C324.057 144.218 328.46 124.054 328.46 124.054C328.46 124.054 321.155 133.208 309.602 133.222C296.717 133.237 289.907 123.634 289.907 123.634Z" fill="#282828"/>
<path d="M307.029 96.1997V102.738C307.029 103.019 307.083 103.288 307.182 103.534C307.569 104.502 308.684 104.966 309.692 104.698L311.859 104.122" stroke="#282828" stroke-width="1.3968" stroke-miterlimit="10" stroke-linecap="round" stroke-linejoin="round"/>
<path d="M298.785 93.0777C298.785 94.4817 297.647 95.6196 296.243 95.6196C294.839 95.6196 293.701 94.4817 293.701 93.0777C293.701 91.6737 294.839 90.5356 296.243 90.5356C297.647 90.5356 298.785 91.6737 298.785 93.0777Z" fill="#282828"/>
<path d="M322.613 93.0777C322.613 94.4817 321.475 95.6196 320.071 95.6196C318.667 95.6196 317.529 94.4817 317.529 93.0777C317.529 91.6737 318.667 90.5356 320.071 90.5356C321.476 90.5356 322.613 91.6737 322.613 93.0777Z" fill="#282828"/>
<path d="M313.566 80.4336L330.655 84.8476C330.655 84.8476 329.878 80.0546 322.887 78.3126C315.896 76.5706 313.566 80.4336 313.566 80.4336Z" fill="#282828"/>
<path d="M302.947 80.4336L285.858 84.8476C285.858 84.8476 286.635 80.0546 293.626 78.3126C300.617 76.5706 302.947 80.4336 302.947 80.4336Z" fill="#282828"/>
<path d="M299.549 109.325C299.549 109.325 302.07 111.257 308.699 111.257C314.728 111.257 318.493 109.325 318.493 109.325" stroke="#282828" stroke-width="1.3968" stroke-miterlimit="10" stroke-linecap="round" stroke-linejoin="round"/>
<path d="M295.559 104.621C301.523 104.621 306.359 99.7852 306.359 93.8205C306.359 87.8558 301.523 83.0205 295.559 83.0205C289.594 83.0205 284.759 87.8558 284.759 93.8205C284.759 99.7852 289.594 104.621 295.559 104.621Z" stroke="white" stroke-width="1.9514" stroke-miterlimit="10"/>
<path d="M322.091 104.621C328.056 104.621 332.891 99.7852 332.891 93.8205C332.891 87.8558 328.056 83.0205 322.091 83.0205C316.126 83.0205 311.291 87.8558 311.291 93.8205C311.291 99.7852 316.126 104.621 322.091 104.621Z" stroke="white" stroke-width="1.9514" stroke-miterlimit="10"/>
<path d="M306.358 93.8207C306.358 93.8207 308.916 91.4337 311.29 93.8207" stroke="white" stroke-width="1.9514" stroke-miterlimit="10"/>
<path d="M284.759 93.8205L281.137 93.7285" stroke="white" stroke-width="1.9514" stroke-miterlimit="10"/>
<path d="M332.892 93.8204L336.934 93.7544" stroke="white" stroke-width="1.9514" stroke-miterlimit="10"/>
<path d="M289.907 59.9026C289.907 59.9026 295.094 74.6377 318.498 74.1857C334.401 73.8787 338.201 85.3866 338.201 85.3866C338.201 85.3866 335.433 59.6596 334.705 59.9026C333.977 60.1456 310.506 53.6396 310.506 53.6396L289.907 59.9026Z" fill="#282828"/>
</g>
</svg>
