<svg width="141" height="36" viewBox="0 0 141 36" fill="none" xmlns="http://www.w3.org/2000/svg">
<path fill-rule="evenodd" clip-rule="evenodd" d="M61.4569 23.8979V5.56477C61.4569 2.50325 58.9714 0 55.8919 0H5.95296C2.89143 0 0.388184 2.48524 0.388184 5.56477V23.8979C0.388184 26.9595 2.87343 29.4627 5.95296 29.4627H42.1149L51.9119 36L49.9489 29.4627H55.9279C58.9714 29.4447 61.4747 26.9595 61.4569 23.8979ZM10.9415 18.4232C11.2296 18.9275 11.6078 19.3237 12.094 19.5758C12.5803 19.8459 13.1025 19.972 13.6968 19.972C14.2911 19.972 14.8314 19.8279 15.3177 19.5578C15.8039 19.2696 16.2001 18.8734 16.4702 18.3692C16.7584 17.8469 16.9024 17.2706 16.9024 16.6043V8.37418C16.9024 8.24813 16.9385 8.15808 17.0105 8.08605C17.0825 8.014 17.1726 7.978 17.2986 7.978H19.2976C19.4237 7.978 19.5318 8.014 19.6038 8.08605C19.6398 8.12205 19.6758 8.17607 19.6938 8.2121C19.7118 8.26612 19.7299 8.32015 19.7118 8.37418V16.5863C19.7118 17.9009 19.4417 18.9995 18.9014 19.9C18.3612 20.7824 17.6408 21.4487 16.7404 21.8629C15.8399 22.2951 14.8134 22.4932 13.6968 22.4932C12.5803 22.4932 11.5718 22.2771 10.6533 21.8449C9.73486 21.4127 9.01451 20.7464 8.47423 19.8639C7.93396 18.9815 7.66383 17.8829 7.66383 16.5683V8.37418C7.66383 8.26612 7.69983 8.17607 7.77188 8.10405C7.80788 8.06802 7.84391 8.03203 7.87993 8.014C7.91596 7.996 7.96998 7.978 8.02401 7.978H10.1311C10.2571 7.978 10.3652 8.014 10.4192 8.08605C10.4732 8.15808 10.5092 8.24813 10.5092 8.37418V16.6043C10.5092 17.3067 10.6533 17.919 10.9415 18.4232ZM21.6028 19.8459C21.6028 19.9 21.6208 19.972 21.6388 20.026C21.6748 20.098 21.7108 20.1701 21.7469 20.2421C22.1971 20.9445 22.8094 21.5028 23.5658 21.899C24.3222 22.2952 25.1866 22.4932 26.1412 22.4932C26.8974 22.4932 27.6357 22.3492 28.3382 22.0791C29.0404 21.7909 29.5987 21.3767 30.0489 20.8004C30.4812 20.2421 30.6974 19.5578 30.6974 18.7474C30.6974 17.901 30.4272 17.1266 29.8869 16.4602C29.3467 15.7759 28.5362 15.2896 27.4377 14.9475C27.2937 14.8935 27.1677 14.8574 27.0414 14.8214C26.9154 14.7854 26.8074 14.7494 26.7174 14.7314C26.1772 14.5873 25.7809 14.4612 25.5287 14.3532C25.2766 14.2451 25.0605 14.1191 24.9165 13.975C24.7544 13.8129 24.6823 13.6148 24.6823 13.3447C24.6823 13.0025 24.8264 12.7324 25.1145 12.5162C25.4027 12.3001 25.7989 12.1921 26.3032 12.1921C26.7894 12.1921 27.1857 12.2822 27.5097 12.4442C27.8339 12.6063 28.1399 12.8765 28.4462 13.2186C28.5542 13.3447 28.6444 13.4167 28.7524 13.4167C28.8244 13.4167 28.9144 13.3807 29.0044 13.2907L30.1389 12.3542C30.2652 12.2461 30.3372 12.1561 30.3372 12.066C30.3372 11.994 30.2832 11.886 30.1932 11.7419C29.7609 11.2016 29.2207 10.7334 28.5722 10.3732C27.9239 9.995 27.1497 9.8149 26.2312 9.8149C25.3847 9.8149 24.6463 9.977 23.998 10.3191C23.3497 10.6613 22.8634 11.0936 22.5032 11.6338C22.1611 12.1741 21.981 12.7143 21.981 13.2726C21.981 13.957 22.107 14.5513 22.3772 15.0375C22.6473 15.5238 23.0435 15.938 23.5838 16.2801C24.1241 16.6223 24.8264 16.9285 25.7089 17.1986C26.0869 17.3067 26.3212 17.3787 26.3752 17.3967C26.8074 17.5228 27.1314 17.6308 27.3297 17.7208C27.5457 17.8109 27.7079 17.919 27.8159 18.0811C27.9419 18.2431 27.9959 18.4592 27.9959 18.7474C27.9959 19.0175 27.8879 19.2696 27.6899 19.4858C27.4737 19.7019 27.2217 19.8639 26.8974 19.99C26.5912 20.098 26.2492 20.1701 25.9249 20.1701C25.3847 20.1701 24.9345 20.044 24.5743 19.7919C24.2141 19.5398 23.8719 19.1976 23.5658 18.7654C23.4577 18.6213 23.3497 18.5493 23.2236 18.5493C23.1516 18.5493 23.0795 18.5853 23.0075 18.6213L21.7649 19.5037C21.6568 19.6118 21.6028 19.7198 21.6028 19.8459ZM41.9349 18.8194C42.0429 18.8194 42.1149 18.8554 42.1692 18.9455L43.1597 20.1521C43.2317 20.2601 43.2857 20.3502 43.2857 20.4402C43.2857 20.5483 43.2317 20.6383 43.1417 20.7284C42.4212 21.3587 41.7189 21.8089 40.9984 22.097C40.2962 22.3672 39.5217 22.5112 38.7114 22.5112C37.6127 22.5112 36.5682 22.2231 35.5957 21.6648C34.6232 21.0886 33.8489 20.3322 33.2727 19.3597C32.6964 18.3872 32.4082 17.3427 32.4082 16.2081C32.4082 15.0555 32.6784 13.993 33.2187 13.0385C33.7589 12.066 34.4972 11.3096 35.4517 10.7334C36.4062 10.1571 37.4687 9.88695 38.6392 9.88695C39.5937 9.88695 40.5302 10.121 41.4667 10.5893C42.4032 11.0575 43.1777 11.7599 43.7899 12.7143C44.4022 13.6688 44.7084 14.8394 44.7084 16.2261C44.7084 16.5323 44.6724 16.7664 44.6002 16.9104C44.5282 17.0545 44.4202 17.1446 44.3122 17.1626C44.1862 17.1986 43.9879 17.2166 43.7359 17.1986H35.0914C35.2177 17.7749 35.4697 18.2792 35.8119 18.7113C36.1542 19.1436 36.5862 19.4858 37.0904 19.7199C37.5947 19.954 38.1349 20.08 38.7114 20.08C39.1617 20.08 39.5397 20.026 39.8819 19.936C40.2062 19.8459 40.4762 19.7379 40.6924 19.6118C40.9444 19.4677 41.1787 19.3056 41.3947 19.1256L41.6829 18.9095C41.7729 18.8374 41.8629 18.8194 41.9349 18.8194ZM37.1627 12.5703C36.6944 12.8044 36.2982 13.1286 35.9559 13.5248C35.6137 13.9209 35.3617 14.3712 35.1817 14.8755H42.0429C41.7549 14.083 41.3047 13.4347 40.7104 12.9485C40.1159 12.4622 39.4137 12.2281 38.6392 12.2281C38.1349 12.2101 37.6307 12.3362 37.1627 12.5703ZM48.7064 9.977H47.3197C47.0674 9.977 46.9414 10.121 46.9414 10.3912V21.881C46.9414 22.1511 47.0674 22.2771 47.3197 22.2771H49.3007C49.5707 22.2771 49.6969 22.1511 49.6969 21.881V15.1456C49.6969 14.5333 49.8049 14.029 50.0389 13.6148C50.2732 13.2006 50.5612 12.8945 50.9394 12.6964C51.2997 12.4983 51.6959 12.3902 52.1099 12.3902C52.5242 12.3902 52.9024 12.4622 53.2627 12.6063C53.6227 12.7684 53.9649 12.9485 54.2892 13.1646C54.3972 13.2366 54.5052 13.2907 54.5952 13.2907C54.7034 13.2907 54.7754 13.2366 54.8654 13.1286L55.7659 11.8499C55.8379 11.7599 55.8739 11.6698 55.8739 11.5798C55.8739 11.4537 55.8019 11.3277 55.6579 11.1836C55.2977 10.8774 54.8294 10.5713 54.2532 10.2831C53.6949 9.995 53.0824 9.85093 52.4162 9.85093C51.8039 9.85093 51.2457 9.995 50.7414 10.2831C50.2372 10.5713 49.8229 10.9675 49.4987 11.4897L49.3007 10.4272C49.2647 10.2291 49.2107 10.103 49.1024 10.049C49.0124 9.995 48.8864 9.977 48.7064 9.977Z" fill="white" fill-opacity="0.4"/>
<path d="M65.0042 7.97803H75.3054C75.5574 7.97803 75.6837 8.1041 75.6837 8.35623V10.1751C75.6837 10.4273 75.5574 10.5713 75.3054 10.5713H71.5054V21.899C71.5054 22.1511 71.3794 22.2772 71.1272 22.2772H69.0562C68.8042 22.2772 68.6782 22.1511 68.6782 21.899V10.5533H64.9862C64.7342 10.5533 64.6079 10.4273 64.6079 10.1571V8.35623C64.6259 8.1041 64.7522 7.97803 65.0042 7.97803Z" fill="white" fill-opacity="0.4"/>
<path d="M84.8866 18.8197C84.9946 18.8197 85.0666 18.8557 85.1206 18.9457L86.1111 20.1524C86.1831 20.2604 86.2371 20.3504 86.2371 20.4405C86.2371 20.5485 86.1831 20.6386 86.0931 20.7286C85.3729 21.359 84.6704 21.8092 83.9501 22.0973C83.2296 22.3855 82.4734 22.5115 81.6629 22.5115C80.5644 22.5115 79.5199 22.2234 78.5474 21.6651C77.5749 21.0888 76.8006 20.3324 76.2241 19.36C75.6479 18.3875 75.3599 17.3429 75.3599 16.2084C75.3599 15.0558 75.6299 13.9933 76.1701 13.0388C76.7104 12.0663 77.4489 11.3099 78.4034 10.7336C79.3579 10.1574 80.4204 9.88721 81.5909 9.88721C82.5454 9.88721 83.4999 10.1213 84.4184 10.5896C85.3549 11.0578 86.1291 11.7602 86.7414 12.7146C87.3539 13.6691 87.6599 14.8397 87.6599 16.2264C87.6599 16.5325 87.6239 16.7667 87.5519 16.9107C87.4799 17.0548 87.3719 17.1448 87.2639 17.1629C87.1376 17.1989 86.9396 17.2169 86.6874 17.2169H78.0611C78.1871 17.7932 78.4394 18.2974 78.7816 18.7296C79.1236 19.1619 79.5559 19.504 80.0601 19.7381C80.5644 19.9723 81.1046 20.0983 81.6989 20.0983C82.1491 20.0983 82.5274 20.0443 82.8696 19.9543C83.1936 19.8642 83.4639 19.7562 83.6799 19.6301C83.9321 19.486 84.1661 19.3239 84.3824 19.1438L84.6704 18.9277C84.7064 18.8377 84.7966 18.8197 84.8866 18.8197ZM80.0961 12.5706C79.6279 12.8047 79.2316 13.1288 78.8896 13.525C78.5474 13.9212 78.2954 14.3715 78.1151 14.8757H84.9946C84.7064 14.0833 84.2564 13.435 83.6619 12.9487C83.0676 12.4625 82.3654 12.2284 81.5729 12.2284C81.0686 12.2104 80.5464 12.3364 80.0961 12.5706Z" fill="white" fill-opacity="0.4"/>
<path d="M88.4886 20.0259C88.4706 19.9718 88.4526 19.8998 88.4526 19.8458C88.4526 19.7197 88.5066 19.6117 88.6149 19.5036L89.8394 18.5671C89.8934 18.5131 89.9654 18.4771 90.0556 18.4951C90.1816 18.4951 90.3076 18.5671 90.3976 18.7112C90.7039 19.1434 91.0461 19.4856 91.4061 19.7377C91.7664 19.9898 92.2166 20.1159 92.7569 20.1159C93.0991 20.1159 93.4231 20.0619 93.7294 19.9358C94.0536 19.8098 94.3236 19.6477 94.5216 19.4316C94.7199 19.2155 94.8279 18.9633 94.8279 18.6932C94.8279 18.4051 94.7739 18.1889 94.6479 18.0269C94.5216 17.8648 94.3596 17.7567 94.1616 17.6667C93.9634 17.5766 93.6394 17.4686 93.2071 17.3425C93.1351 17.3245 92.9189 17.2705 92.5409 17.1444C91.6584 16.8743 90.9559 16.5681 90.4156 16.226C89.8754 15.8838 89.4791 15.4696 89.2091 14.9833C88.9389 14.4971 88.8129 13.9028 88.8129 13.2185C88.8129 12.6602 88.9929 12.1199 89.3351 11.5796C89.6774 11.0394 90.1816 10.6072 90.8299 10.265C91.4781 9.92282 92.2166 9.76074 93.0631 9.76074C93.9634 9.76074 94.7559 9.94082 95.4041 10.319C96.0526 10.6972 96.5929 11.1474 97.0251 11.6877C97.1331 11.8138 97.1691 11.9218 97.1691 12.0119C97.1691 12.1019 97.0971 12.21 96.9709 12.3L95.8364 13.2365C95.7284 13.3085 95.6564 13.3625 95.5844 13.3625C95.4941 13.3625 95.3861 13.2905 95.2781 13.1644C94.9899 12.8223 94.6659 12.5701 94.3416 12.39C94.0174 12.228 93.6034 12.1379 93.1351 12.1379C92.6309 12.1379 92.2346 12.246 91.9464 12.4621C91.6584 12.6782 91.5141 12.9483 91.5141 13.2905C91.5141 13.5606 91.5864 13.7587 91.7484 13.9208C91.9104 14.0829 92.1086 14.209 92.3606 14.299C92.6129 14.4071 93.0269 14.5151 93.5494 14.6772C93.6574 14.6952 93.7654 14.7312 93.8734 14.7672C93.9994 14.8033 94.1256 14.8393 94.2696 14.8933C95.3681 15.2175 96.1786 15.7217 96.7189 16.4061C97.2591 17.0904 97.5291 17.8468 97.5291 18.6932C97.5291 19.4856 97.3131 20.1699 96.8809 20.7462C96.4486 21.3045 95.8724 21.7367 95.1701 22.0249C94.4676 22.313 93.7294 22.4571 92.9729 22.4391C92.0184 22.4391 91.1541 22.241 90.3976 21.8448C89.6414 21.4486 89.0471 20.8903 88.5789 20.1879C88.5609 20.1699 88.5249 20.0979 88.4886 20.0259Z" fill="white" fill-opacity="0.4"/>
<path d="M104.138 10.0673C104.408 10.0673 104.552 10.2114 104.552 10.4815V12.0663C104.552 12.1924 104.516 12.3004 104.426 12.3725C104.336 12.4445 104.228 12.4805 104.102 12.4805H102.715V18.4775C102.715 18.9097 102.787 19.2519 102.949 19.522C103.111 19.7742 103.382 19.9182 103.76 19.9363L104.066 19.9543C104.282 19.9723 104.426 20.0263 104.48 20.1344C104.534 20.2424 104.57 20.3685 104.552 20.4945V21.8632C104.552 22.1874 104.3 22.3495 103.814 22.3495C103.057 22.3495 102.391 22.2054 101.815 21.9172C101.221 21.6291 100.77 21.2149 100.446 20.6746C100.122 20.1344 99.9599 19.504 99.9599 18.7837V12.4985H98.8435C98.7355 12.4985 98.6272 12.4625 98.5552 12.3905C98.4652 12.3184 98.4292 12.2104 98.4292 12.0843V10.5175C98.4292 10.3735 98.4652 10.2654 98.5552 10.1754C98.6272 10.1033 98.7355 10.0673 98.8435 10.0673H99.9599V8.05032C99.9599 7.90624 99.978 7.81619 100.032 7.74417C100.086 7.67212 100.194 7.63612 100.338 7.58209L102.301 7.00579C102.337 6.98779 102.373 6.98779 102.409 6.98779C102.445 6.98779 102.499 7.00579 102.535 7.02379C102.571 7.04182 102.607 7.07784 102.625 7.11384C102.679 7.18589 102.697 7.29394 102.697 7.41999V10.0493L104.138 10.0673Z" fill="white" fill-opacity="0.4"/>
<path d="M107.182 5.58301H108.857C109.217 5.58301 109.397 5.78111 109.397 6.19533V7.88816C109.397 8.08626 109.361 8.23033 109.271 8.30238C109.181 8.37441 109.037 8.42843 108.857 8.42843H107.182C106.786 8.42843 106.587 8.24836 106.587 7.88816V6.19533C106.587 5.78111 106.786 5.58301 107.182 5.58301ZM106.786 10.0853C106.858 10.0132 106.948 9.97721 107.056 9.97721H109.091C109.199 9.97721 109.289 10.0132 109.361 10.0853C109.433 10.1573 109.469 10.2474 109.469 10.3734V21.8812C109.469 22.1333 109.343 22.2774 109.091 22.2774H107.056C106.804 22.2774 106.678 22.1513 106.678 21.8812V10.3734C106.678 10.2474 106.714 10.1573 106.786 10.0853Z" fill="white" fill-opacity="0.4"/>
<path d="M114.223 22.1693C114.115 22.2413 113.971 22.2773 113.845 22.2773H112.08C111.81 22.2773 111.666 22.1333 111.666 21.8631V10.3734C111.666 10.1032 111.81 9.95917 112.08 9.95917H113.377C113.503 9.95917 113.647 10.0132 113.737 10.1032C113.845 10.1933 113.917 10.3194 113.953 10.4454L114.115 11.8321C114.583 11.1658 115.141 10.6795 115.808 10.3554C116.474 10.0312 117.194 9.86914 117.933 9.86914C118.671 9.86914 119.392 10.0492 120.094 10.4274C120.796 10.8056 121.373 11.3819 121.841 12.1563C122.291 12.9307 122.525 13.9031 122.525 15.0557V21.8451C122.525 22.1153 122.399 22.2413 122.147 22.2413H120.22C119.95 22.2413 119.806 22.1153 119.806 21.8451V15.1458C119.806 14.6775 119.698 14.2453 119.464 13.8311C119.229 13.4169 118.905 13.0747 118.509 12.8226C118.095 12.5705 117.645 12.4444 117.14 12.4444C116.708 12.4444 116.276 12.5525 115.862 12.7866C115.43 13.0207 115.087 13.3449 114.817 13.7771C114.547 14.2093 114.403 14.7135 114.403 15.2718V21.8271C114.385 21.9892 114.331 22.0792 114.223 22.1693Z" fill="white" fill-opacity="0.4"/>
<path d="M135.888 23.4297C135.348 24.4022 134.628 25.1405 133.691 25.6448C132.755 26.149 131.674 26.3832 130.468 26.3832C129.657 26.3832 128.865 26.239 128.091 25.969C127.298 25.6987 126.632 25.3208 126.074 24.8524C125.965 24.7624 125.911 24.6723 125.911 24.5643C125.911 24.4922 125.947 24.4022 126.037 24.2761L126.848 23.1055C126.938 22.9795 127.046 22.9074 127.19 22.9074C127.298 22.9074 127.406 22.9435 127.532 23.0335C128.379 23.6278 129.423 23.9159 130.702 23.9159C131.35 23.9159 131.926 23.7719 132.431 23.4837C132.935 23.2136 133.349 22.7994 133.619 22.2951C133.907 21.7909 134.051 21.2146 134.051 20.5662V20.5303C133.511 21.1065 132.935 21.5388 132.341 21.8269C131.746 22.115 131.044 22.2591 130.252 22.2591C129.189 22.2591 128.181 22.007 127.262 21.4667C126.326 20.9444 125.587 20.2061 125.029 19.2696C124.471 18.3331 124.183 17.2706 124.201 16.082C124.201 14.9655 124.471 13.9209 125.029 12.9664C125.587 12.012 126.326 11.2376 127.262 10.6613C128.199 10.085 129.189 9.79688 130.252 9.79688C131.782 9.79688 133.097 10.3912 134.196 11.5618L134.358 10.4272C134.375 10.2471 134.43 10.121 134.502 10.049C134.574 9.97697 134.682 9.94095 134.826 9.94095H136.374C136.609 9.94095 136.735 10.085 136.735 10.3552V19.8099C136.681 21.2686 136.411 22.4572 135.888 23.4297ZM133.619 14.2271C133.295 13.6508 132.863 13.1826 132.305 12.8404C131.746 12.4982 131.134 12.3181 130.432 12.3181C129.711 12.3181 129.081 12.4982 128.523 12.8404C127.964 13.1826 127.55 13.6508 127.226 14.2451C126.92 14.8394 126.758 15.4697 126.758 16.1721C126.758 16.9104 126.92 17.5587 127.244 18.135C127.568 18.7113 128.018 19.1616 128.577 19.4857C129.135 19.8099 129.765 19.972 130.45 19.972C131.134 19.972 131.746 19.8099 132.287 19.4677C132.827 19.1255 133.259 18.6573 133.583 18.081C133.889 17.4867 134.051 16.8564 134.051 16.1721C134.088 15.4517 133.925 14.8034 133.619 14.2271Z" fill="white" fill-opacity="0.4"/>
<path d="M139.021 9.97705C138.247 9.97705 137.617 10.6074 137.617 11.3818C137.617 12.1562 138.247 12.7865 139.021 12.7865C139.796 12.7865 140.426 12.1562 140.426 11.3818C140.426 10.6254 139.796 9.97705 139.021 9.97705ZM139.021 12.4983C138.427 12.4983 137.923 11.9941 137.923 11.3818C137.923 10.7695 138.427 10.2652 139.021 10.2652C139.616 10.2652 140.12 10.7515 140.12 11.3818C140.12 11.9941 139.616 12.4983 139.021 12.4983Z" fill="white" fill-opacity="0.4"/>
<path d="M138.481 10.6254C138.481 10.6254 138.499 10.6074 138.517 10.6074H139.165C139.256 10.6074 139.346 10.6254 139.418 10.6794C139.49 10.7335 139.544 10.7875 139.598 10.8595C139.634 10.9316 139.67 11.0216 139.67 11.1117C139.67 11.2017 139.652 11.2737 139.598 11.3638C139.544 11.4358 139.49 11.5079 139.4 11.5439L139.688 12.1022V12.1202V12.1382H139.67H139.4C139.382 12.1382 139.382 12.1382 139.364 12.1382C139.364 12.1382 139.346 12.1202 139.346 12.1022L139.093 11.5979H138.787V12.0841C138.787 12.1202 138.769 12.1202 138.751 12.1202H138.535C138.499 12.1202 138.499 12.1022 138.499 12.0841V10.6254C138.463 10.6434 138.463 10.6254 138.481 10.6254ZM138.769 11.3638H139.093C139.147 11.3638 139.183 11.3458 139.22 11.3278C139.256 11.3098 139.292 11.2737 139.31 11.2377C139.328 11.2017 139.346 11.1657 139.346 11.1117C139.346 11.0756 139.328 11.0216 139.31 10.9856C139.292 10.9496 139.256 10.9136 139.22 10.8956C139.183 10.8775 139.147 10.8595 139.093 10.8595H138.769V11.3638Z" fill="white" fill-opacity="0.4"/>
</svg>
